<?xml version="1.0" encoding="UTF-8" standalone="no"?>
<!DOCTYPE svg PUBLIC "-//W3C//DTD SVG 1.1//EN"
 "http://www.w3.org/Graphics/SVG/1.1/DTD/svg11.dtd">
<!-- Generated by graphviz version 2.38.0 (20140413.2041)
 -->
<!-- Title: models_diagram Pages: 1 -->
<svg width="592pt" height="158pt"
 viewBox="0.00 0.00 592.34 158.00" xmlns="http://www.w3.org/2000/svg" xmlns:xlink="http://www.w3.org/1999/xlink">
<g id="graph0" class="graph" transform="scale(1 1) rotate(0) translate(4 154)">
<title>models_diagram</title>
<polygon fill="none" stroke="none" points="-4,4 -4,-154 588.343,-154 588.343,4 -4,4"/>
<!-- _diagram_info -->
<g id="node1" class="node"><title>_diagram_info</title>
<text text-anchor="start" x="8" y="-135.6" font-family="Times,serif" font-size="13.00">Models diagram</text>
<text text-anchor="start" x="8" y="-121.6" font-family="Times,serif" font-size="13.00">Date: Oct 28 2016 &#45; 19:51</text>
<text text-anchor="start" x="8" y="-107.6" font-family="Times,serif" font-size="13.00">Migration version: 20161028222545</text>
<text text-anchor="start" x="8" y="-93.6" font-family="Times,serif" font-size="13.00">Generated by RailRoady 1.5.2</text>
<text text-anchor="start" x="8" y="-79.6" font-family="Times,serif" font-size="13.00">http://railroady.prestonlee.com</text>
</g>
<!-- Usuario -->
<g id="node2" class="node"><title>Usuario</title>
<ellipse fill="none" stroke="black" cx="270" cy="-111" rx="38.1938" ry="18"/>
<text text-anchor="middle" x="270" y="-107.3" font-family="Times,serif" font-size="14.00">Usuario</text>
</g>
<!-- Item -->
<g id="node4" class="node"><title>Item</title>
<ellipse fill="none" stroke="black" cx="270" cy="-18" rx="27.0966" ry="18"/>
<text text-anchor="middle" x="270" y="-14.3" font-family="Times,serif" font-size="14.00">Item</text>
</g>
<!-- Usuario&#45;&gt;Item -->
<g id="edge1" class="edge"><title>Usuario&#45;&gt;Item</title>
<path fill="none" stroke="#b7ca5c" d="M263.878,-84.6739C263.074,-72.5869 263.042,-58.1182 263.782,-45.8416"/>
<ellipse fill="none" stroke="#b7ca5c" cx="264.244" cy="-88.8985" rx="4" ry="4"/>
<polygon fill="#b7ca5c" stroke="#b7ca5c" points="263.794,-45.6971 269.115,-36.1089 264.213,-40.7147 264.631,-35.7322 264.631,-35.7322 264.631,-35.7322 264.213,-40.7147 260.147,-35.3555 263.794,-45.6971 263.794,-45.6971"/>
</g>
<!-- ApplicationRecord -->
<g id="node3" class="node"><title>ApplicationRecord</title>
<ellipse fill="none" stroke="black" cx="507" cy="-111" rx="77.1866" ry="18"/>
<text text-anchor="middle" x="507" y="-107.3" font-family="Times,serif" font-size="14.00">ApplicationRecord</text>
</g>
<!-- Item&#45;&gt;Usuario -->
<g id="edge2" class="edge"><title>Item&#45;&gt;Usuario</title>
<path fill="none" stroke="#a123b1" d="M276.1,-43.9988C276.959,-56.6507 276.967,-71.9764 276.122,-84.6739"/>
<ellipse fill="none" stroke="#a123b1" cx="275.721" cy="-39.7166" rx="4" ry="4"/>
<ellipse fill="#a123b1" stroke="#a123b1" cx="275.756" cy="-88.8985" rx="4" ry="4"/>
</g>
<!-- Category -->
<g id="node5" class="node"><title>Category</title>
<ellipse fill="none" stroke="black" cx="369" cy="-111" rx="42.7926" ry="18"/>
<text text-anchor="middle" x="369" y="-107.3" font-family="Times,serif" font-size="14.00">Category</text>
</g>
<!-- Category&#45;&gt;Item -->
<g id="edge3" class="edge"><title>Category&#45;&gt;Item</title>
<path fill="none" stroke="#024547" d="M345.736,-88.6163C329.894,-74.0537 309.008,-54.8555 293.182,-40.3088"/>
<ellipse fill="none" stroke="#024547" cx="348.811" cy="-91.4421" rx="4.00002" ry="4.00002"/>
<polygon fill="#024547" stroke="#024547" points="292.783,-39.9424 288.467,-29.862 289.102,-36.5587 285.421,-33.175 285.421,-33.175 285.421,-33.175 289.102,-36.5587 282.376,-36.4881 292.783,-39.9424 292.783,-39.9424"/>
</g>
</g>
</svg>
