<?xml version="1.0" encoding="UTF-8" standalone="no"?>
<!DOCTYPE svg PUBLIC "-//W3C//DTD SVG 1.1//EN"
 "http://www.w3.org/Graphics/SVG/1.1/DTD/svg11.dtd">
<!-- Generated by graphviz version 2.38.0 (20140413.2041)
 -->
<!-- Title: models_diagram Pages: 1 -->
<svg width="918pt" height="303pt"
 viewBox="0.00 0.00 918.34 303.00" xmlns="http://www.w3.org/2000/svg" xmlns:xlink="http://www.w3.org/1999/xlink">
<g id="graph0" class="graph" transform="scale(1 1) rotate(0) translate(4 299)">
<title>models_diagram</title>
<polygon fill="none" stroke="none" points="-4,4 -4,-299 914.343,-299 914.343,4 -4,4"/>
<!-- _diagram_info -->
<g id="node1" class="node"><title>_diagram_info</title>
<text text-anchor="start" x="8" y="-266.1" font-family="Times,serif" font-size="13.00">Models diagram</text>
<text text-anchor="start" x="8" y="-252.1" font-family="Times,serif" font-size="13.00">Date: Oct 28 2016 &#45; 19:51</text>
<text text-anchor="start" x="8" y="-238.1" font-family="Times,serif" font-size="13.00">Migration version: 20161028222545</text>
<text text-anchor="start" x="8" y="-224.1" font-family="Times,serif" font-size="13.00">Generated by RailRoady 1.5.2</text>
<text text-anchor="start" x="8" y="-210.1" font-family="Times,serif" font-size="13.00">http://railroady.prestonlee.com</text>
</g>
<!-- Usuario -->
<g id="node2" class="node"><title>Usuario</title>
<path fill="none" stroke="black" d="M244,-188.5C244,-188.5 464,-188.5 464,-188.5 470,-188.5 476,-194.5 476,-200.5 476,-200.5 476,-282.5 476,-282.5 476,-288.5 470,-294.5 464,-294.5 464,-294.5 244,-294.5 244,-294.5 238,-294.5 232,-288.5 232,-282.5 232,-282.5 232,-200.5 232,-200.5 232,-194.5 238,-188.5 244,-188.5"/>
<text text-anchor="middle" x="354" y="-279.3" font-family="Times,serif" font-size="14.00">Usuario</text>
<polyline fill="none" stroke="black" points="232,-271.5 476,-271.5 "/>
<text text-anchor="start" x="240" y="-256.3" font-family="Times,serif" font-size="14.00">id :integer</text>
<text text-anchor="start" x="240" y="-241.3" font-family="Times,serif" font-size="14.00">name :character varying</text>
<text text-anchor="start" x="240" y="-226.3" font-family="Times,serif" font-size="14.00">email :character varying</text>
<text text-anchor="start" x="240" y="-211.3" font-family="Times,serif" font-size="14.00">created_at :timestamp without time zone</text>
<text text-anchor="start" x="240" y="-196.3" font-family="Times,serif" font-size="14.00">updated_at :timestamp without time zone</text>
</g>
<!-- Item -->
<g id="node4" class="node"><title>Item</title>
<path fill="none" stroke="black" d="M244,-0.5C244,-0.5 464,-0.5 464,-0.5 470,-0.5 476,-6.5 476,-12.5 476,-12.5 476,-139.5 476,-139.5 476,-145.5 470,-151.5 464,-151.5 464,-151.5 244,-151.5 244,-151.5 238,-151.5 232,-145.5 232,-139.5 232,-139.5 232,-12.5 232,-12.5 232,-6.5 238,-0.5 244,-0.5"/>
<text text-anchor="middle" x="354" y="-136.3" font-family="Times,serif" font-size="14.00">Item</text>
<polyline fill="none" stroke="black" points="232,-128.5 476,-128.5 "/>
<text text-anchor="start" x="240" y="-113.3" font-family="Times,serif" font-size="14.00">id :integer</text>
<text text-anchor="start" x="240" y="-98.3" font-family="Times,serif" font-size="14.00">name :character varying</text>
<text text-anchor="start" x="240" y="-83.3" font-family="Times,serif" font-size="14.00">serie :integer</text>
<text text-anchor="start" x="240" y="-68.3" font-family="Times,serif" font-size="14.00">category_id :integer</text>
<text text-anchor="start" x="240" y="-53.3" font-family="Times,serif" font-size="14.00">created_at :timestamp without time zone</text>
<text text-anchor="start" x="240" y="-38.3" font-family="Times,serif" font-size="14.00">updated_at :timestamp without time zone</text>
<text text-anchor="start" x="240" y="-23.3" font-family="Times,serif" font-size="14.00">size :integer</text>
<text text-anchor="start" x="240" y="-8.3" font-family="Times,serif" font-size="14.00">description :text</text>
</g>
<!-- Usuario&#45;&gt;Item -->
<g id="edge1" class="edge"><title>Usuario&#45;&gt;Item</title>
<path fill="none" stroke="#88c4a8" d="M347.462,-180.248C347.342,-174.28 347.273,-168.147 347.255,-161.99"/>
<ellipse fill="none" stroke="#88c4a8" cx="347.561" cy="-184.319" rx="4" ry="4"/>
<polygon fill="#88c4a8" stroke="#88c4a8" points="347.255,-161.63 351.773,-151.638 347.264,-156.63 347.273,-151.63 347.273,-151.63 347.273,-151.63 347.264,-156.63 342.773,-151.622 347.255,-161.63 347.255,-161.63"/>
</g>
<!-- ApplicationRecord -->
<g id="node3" class="node"><title>ApplicationRecord</title>
<ellipse fill="none" stroke="black" cx="833" cy="-241.5" rx="77.1866" ry="18"/>
<text text-anchor="middle" x="833" y="-237.8" font-family="Times,serif" font-size="14.00">ApplicationRecord</text>
</g>
<!-- Item&#45;&gt;Usuario -->
<g id="edge2" class="edge"><title>Item&#45;&gt;Usuario</title>
<path fill="none" stroke="#7de2f0" d="M360.75,-159.737C360.743,-166.649 360.673,-173.552 360.538,-180.248"/>
<ellipse fill="none" stroke="#7de2f0" cx="360.738" cy="-155.63" rx="4" ry="4"/>
<ellipse fill="#7de2f0" stroke="#7de2f0" cx="360.439" cy="-184.319" rx="4" ry="4"/>
</g>
<!-- Category -->
<g id="node5" class="node"><title>Category</title>
<path fill="none" stroke="black" d="M506,-196C506,-196 726,-196 726,-196 732,-196 738,-202 738,-208 738,-208 738,-275 738,-275 738,-281 732,-287 726,-287 726,-287 506,-287 506,-287 500,-287 494,-281 494,-275 494,-275 494,-208 494,-208 494,-202 500,-196 506,-196"/>
<text text-anchor="middle" x="616" y="-271.8" font-family="Times,serif" font-size="14.00">Category</text>
<polyline fill="none" stroke="black" points="494,-264 738,-264 "/>
<text text-anchor="start" x="502" y="-248.8" font-family="Times,serif" font-size="14.00">id :integer</text>
<text text-anchor="start" x="502" y="-233.8" font-family="Times,serif" font-size="14.00">name :character varying</text>
<text text-anchor="start" x="502" y="-218.8" font-family="Times,serif" font-size="14.00">created_at :timestamp without time zone</text>
<text text-anchor="start" x="502" y="-203.8" font-family="Times,serif" font-size="14.00">updated_at :timestamp without time zone</text>
</g>
<!-- Category&#45;&gt;Item -->
<g id="edge3" class="edge"><title>Category&#45;&gt;Item</title>
<path fill="none" stroke="#dd7f9c" d="M537.39,-191.444C519.976,-180.577 501.084,-168.787 482.266,-157.044"/>
<ellipse fill="none" stroke="#dd7f9c" cx="541.014" cy="-193.705" rx="4.00002" ry="4.00002"/>
<polygon fill="#dd7f9c" stroke="#dd7f9c" points="482.115,-156.949 476.013,-147.838 477.873,-154.302 473.631,-151.655 473.631,-151.655 473.631,-151.655 477.873,-154.302 471.249,-155.473 482.115,-156.949 482.115,-156.949"/>
</g>
</g>
</svg>
